{
    "asset" : {
        "generator" : "Khronos glTF Blender I/O v3.2.43",
        "version" : "2.0"
    },
    "scene" : 0,
    "scenes" : [
        {
            "name" : "Scene",
            "nodes" : [
                0
            ]
        }
    ],
    "nodes" : [
        {
            "mesh" : 0,
            "name" : "Mesh",
            "rotation" : [
                -0.49999991059303284,
                -0.5,
                -0.5000001192092896,
                0.5000000596046448
            ],
            "scale" : [
                3.3443117141723633,
                3.3443117141723633,
                3.3443117141723633
            ],
            "translation" : [
                0,
                1.258833408355713,
                -6.959475040435791
            ]
        }
    ],
    "materials" : [
        {
            "doubleSided" : true,
            "name" : "Default",
            "pbrMetallicRoughness" : {
                "baseColorFactor" : [
                    0.800000011920929,
                    0.800000011920929,
                    0.800000011920929,
                    1
                ],
                "metallicFactor" : 0,
                "roughnessFactor" : 0.494035542011261
            }
        },
        {
            "doubleSided" : true,
            "name" : "Knop",
            "pbrMetallicRoughness" : {
                "baseColorFactor" : [
                    0.07570979744195938,
                    0.07570979744195938,
                    0.07570979744195938,
                    1
                ],
                "metallicFactor" : 0,
                "roughnessFactor" : 0.494035542011261
            }
        },
        {
            "doubleSided" : true,
            "name" : "Glasses",
            "pbrMetallicRoughness" : {
                "baseColorFactor" : [
                    0.800000011920929,
                    0.800000011920929,
                    0.800000011920929,
                    1
                ],
                "metallicFactor" : 0,
                "roughnessFactor" : 0.494035542011261
            }
        },
        {
            "doubleSided" : true,
            "name" : "Glass",
            "pbrMetallicRoughness" : {
                "baseColorFactor" : [
                    0.10851699858903885,
                    0.10851699858903885,
                    0.10851699858903885,
                    0.5
                ],
                "metallicFactor" : 0,
                "roughnessFactor" : 0.494035542011261
            }
        },
        {
            "doubleSided" : true,
            "name" : "Line",
            "pbrMetallicRoughness" : {
                "baseColorFactor" : [
                    0.10851699858903885,
                    0.10851699858903885,
                    0.10851699858903885,
                    1
                ],
                "metallicFactor" : 0,
                "roughnessFactor" : 0.494035542011261
            }
        }
    ],
    "meshes" : [
        {
            "name" : "Mesh",
            "primitives" : [
                {
                    "attributes" : {
                        "POSITION" : 0,
                        "NORMAL" : 1,
                        "TEXCOORD_0" : 2
                    },
                    "indices" : 3,
                    "material" : 0
                },
                {
                    "attributes" : {
                        "POSITION" : 4,
                        "NORMAL" : 5,
                        "TEXCOORD_0" : 6
                    },
                    "indices" : 7,
                    "material" : 1
                },
                {
                    "attributes" : {
                        "POSITION" : 8,
                        "NORMAL" : 9,
                        "TEXCOORD_0" : 10
                    },
                    "indices" : 11,
                    "material" : 2
                },
                {
                    "attributes" : {
                        "POSITION" : 12,
                        "NORMAL" : 13,
                        "TEXCOORD_0" : 14
                    },
                    "indices" : 15,
                    "material" : 3
                },
                {
                    "attributes" : {
                        "POSITION" : 16,
                        "NORMAL" : 17,
                        "TEXCOORD_0" : 18
                    },
                    "indices" : 19,
                    "material" : 4
                }
            ]
        }
    ],
    "accessors" : [
        {
            "bufferView" : 0,
            "componentType" : 5126,
            "count" : 176,
            "max" : [
                0.32499998807907104,
                0.15000000596046448,
                0.6349999904632568
            ],
            "min" : [
                -0.32499998807907104,
                -0.17499999701976776,
                -0.36399999260902405
            ],
            "type" : "VEC3"
        },
        {
            "bufferView" : 1,
            "componentType" : 5126,
            "count" : 176,
            "type" : "VEC3"
        },
        {
            "bufferView" : 2,
            "componentType" : 5126,
            "count" : 176,
            "type" : "VEC2"
        },
        {
            "bufferView" : 3,
            "componentType" : 5123,
            "count" : 324,
            "type" : "SCALAR"
        },
        {
            "bufferView" : 4,
            "componentType" : 5126,
            "count" : 1008,
            "max" : [
                0.15504899621009827,
                -0.15469999611377716,
                0.4100489914417267
            ],
            "min" : [
                -0.15504899621009827,
                -0.16529999673366547,
                -0.12504899501800537
            ],
            "type" : "VEC3"
        },
        {
            "bufferView" : 5,
            "componentType" : 5126,
            "count" : 1008,
            "type" : "VEC3"
        },
        {
            "bufferView" : 6,
            "componentType" : 5126,
            "count" : 1008,
            "type" : "VEC2"
        },
        {
            "bufferView" : 7,
            "componentType" : 5123,
            "count" : 1656,
            "type" : "SCALAR"
        },
        {
            "bufferView" : 8,
            "componentType" : 5126,
            "count" : 40,
            "max" : [
                0.2906999886035919,
                0.12999999523162842,
                0.11599999666213989
            ],
            "min" : [
                -0.2906999886035919,
                -0.1550000011920929,
                -0.34599998593330383
            ],
            "type" : "VEC3"
        },
        {
            "bufferView" : 9,
            "componentType" : 5126,
            "count" : 40,
            "type" : "VEC3"
        },
        {
            "bufferView" : 10,
            "componentType" : 5126,
            "count" : 40,
            "type" : "VEC2"
        },
        {
            "bufferView" : 11,
            "componentType" : 5123,
            "count" : 60,
            "type" : "SCALAR"
        },
        {
            "bufferView" : 12,
            "componentType" : 5126,
            "count" : 8,
            "max" : [
                0.2906999886035919,
                -0.1550000011920929,
                0.11599999666213989
            ],
            "min" : [
                -0.2906999886035919,
                -0.1550000011920929,
                -0.34599998593330383
            ],
            "type" : "VEC3"
        },
        {
            "bufferView" : 13,
            "componentType" : 5126,
            "count" : 8,
            "type" : "VEC3"
        },
        {
            "bufferView" : 14,
            "componentType" : 5126,
            "count" : 8,
            "type" : "VEC2"
        },
        {
            "bufferView" : 15,
            "componentType" : 5123,
            "count" : 12,
            "type" : "SCALAR"
        },
        {
            "bufferView" : 16,
            "componentType" : 5126,
            "count" : 227,
            "max" : [
                0.32499998807907104,
                0.15000000596046448,
                0.6349999904632568
            ],
            "min" : [
                -0.32499998807907104,
                -0.17499999701976776,
                -0.36399999260902405
            ],
            "type" : "VEC3"
        },
        {
            "bufferView" : 17,
            "componentType" : 5126,
            "count" : 227,
            "type" : "VEC3"
        },
        {
            "bufferView" : 18,
            "componentType" : 5126,
            "count" : 227,
            "type" : "VEC2"
        },
        {
            "bufferView" : 19,
            "componentType" : 5123,
            "count" : 396,
            "type" : "SCALAR"
        }
    ],
    "bufferViews" : [
        {
            "buffer" : 0,
            "byteLength" : 2112,
            "byteOffset" : 0
        },
        {
            "buffer" : 0,
            "byteLength" : 2112,
            "byteOffset" : 2112
        },
        {
            "buffer" : 0,
            "byteLength" : 1408,
            "byteOffset" : 4224
        },
        {
            "buffer" : 0,
            "byteLength" : 648,
            "byteOffset" : 5632
        },
        {
            "buffer" : 0,
            "byteLength" : 12096,
            "byteOffset" : 6280
        },
        {
            "buffer" : 0,
            "byteLength" : 12096,
            "byteOffset" : 18376
        },
        {
            "buffer" : 0,
            "byteLength" : 8064,
            "byteOffset" : 30472
        },
        {
            "buffer" : 0,
            "byteLength" : 3312,
            "byteOffset" : 38536
        },
        {
            "buffer" : 0,
            "byteLength" : 480,
            "byteOffset" : 41848
        },
        {
            "buffer" : 0,
            "byteLength" : 480,
            "byteOffset" : 42328
        },
        {
            "buffer" : 0,
            "byteLength" : 320,
            "byteOffset" : 42808
        },
        {
            "buffer" : 0,
            "byteLength" : 120,
            "byteOffset" : 43128
        },
        {
            "buffer" : 0,
            "byteLength" : 96,
            "byteOffset" : 43248
        },
        {
            "buffer" : 0,
            "byteLength" : 96,
            "byteOffset" : 43344
        },
        {
            "buffer" : 0,
            "byteLength" : 64,
            "byteOffset" : 43440
        },
        {
            "buffer" : 0,
            "byteLength" : 24,
            "byteOffset" : 43504
        },
        {
            "buffer" : 0,
            "byteLength" : 2724,
            "byteOffset" : 43528
        },
        {
            "buffer" : 0,
            "byteLength" : 2724,
            "byteOffset" : 46252
        },
        {
            "buffer" : 0,
            "byteLength" : 1816,
            "byteOffset" : 48976
        },
        {
            "buffer" : 0,
            "byteLength" : 792,
            "byteOffset" : 50792
        }
    ],
    "buffers" : [
        {
            "byteLength" : 51584,
            "uri" : "data:application/octet-stream;base64,"
        }
    ]
}
